<svg preserveAspectRatio="none" width="100%" height="100%" overflow="visible" style="display: block;" viewBox="0 0 24 24" fill="none" xmlns="http://www.w3.org/2000/svg">
<g id="Trophy Streamline Phosphor Regular">
<rect width="24" height="24" rx="5" fill="url(#paint0_linear_157_2499)"/>
<path id="Vector" d="M18.9333 6H17.3333V4.66667C17.3333 4.29846 17.0946 3.99998 16.8 4H7.2C6.90544 3.99998 6.66666 4.29846 6.66666 4.66667V6H5.06666C4.47756 6 4 6.59696 4 7.33333V8.66667C4 10.5077 5.19386 12.0001 6.66666 12H6.91C7.55212 14.5437 9.34366 16.3657 11.4667 16.6342V18.6667H9.86666C9.45611 18.6672 9.19999 19.2231 9.40566 19.6673C9.50091 19.873 9.67654 19.9997 9.86666 20H14.1333C14.5439 19.9994 14.8 19.4435 14.5943 18.9994C14.4991 18.7937 14.3235 18.6669 14.1333 18.6667H12.5333V16.6317C14.6627 16.3625 16.4293 14.495 17.072 12H17.3333C18.806 11.9999 20 10.5076 20 8.66667V7.33333C20 6.59698 19.5224 6.00003 18.9333 6ZM6.66666 10.6667C5.78304 10.6666 5.06666 9.7712 5.06666 8.66667V7.33333H6.66666V10C6.66666 10.2222 6.67533 10.4444 6.69267 10.6667H6.66666ZM16.2667 9.925C16.2667 12.885 14.3333 15.3117 12 15.3333C9.64358 15.3333 7.73334 12.9455 7.73334 10V5.33333H16.2667V9.925ZM18.9333 8.66667C18.9333 9.7712 18.217 10.6666 17.3333 10.6667H17.3C17.3219 10.4204 17.333 10.1728 17.3333 9.925V7.33333H18.9333V8.66667Z" fill="var(--fill-0, #FCFCFD)"/>
</g>
<defs>
<linearGradient id="paint0_linear_157_2499" x1="12" y1="0" x2="12" y2="24" gradientUnits="userSpaceOnUse">
<stop stop-color="#00A326"/>
<stop offset="1" stop-color="#7159B6"/>
</linearGradient>
</defs>
</svg>
