<svg preserveAspectRatio="none" width="100%" height="100%" overflow="visible" style="display: block;" viewBox="0 0 22.5025 16.5266" fill="none" xmlns="http://www.w3.org/2000/svg">
<g id="users-three-duotone">
<path id="Vector" d="M15.0003 8.99917C15.0003 9.74083 14.7803 10.4659 14.3683 11.0826C13.9563 11.6993 13.3705 12.1799 12.6853 12.4637C12.0001 12.7476 11.2461 12.8218 10.5186 12.6771C9.79124 12.5324 9.12309 12.1752 8.59862 11.6508C8.07417 11.1264 7.71702 10.4582 7.57233 9.7308C7.42764 9.0033 7.5019 8.24936 7.78572 7.56414C8.06955 6.87892 8.5502 6.29317 9.16687 5.88114C9.78356 5.46911 10.5086 5.24917 11.2503 5.24917C12.2449 5.24917 13.1987 5.64424 13.9019 6.34755C14.6052 7.05077 15.0003 8.00458 15.0003 8.99917ZM5.25027 0.749174C4.65693 0.749174 4.07691 0.925124 3.58357 1.25477C3.09022 1.58441 2.7057 2.05295 2.47864 2.60112C2.25158 3.1493 2.19217 3.7525 2.30792 4.33445C2.42367 4.91636 2.7094 5.45092 3.12896 5.87045C3.54852 6.29008 4.08306 6.57574 4.665 6.69152C5.24695 6.8073 5.85015 6.74786 6.39833 6.5208C6.9465 6.29374 7.41504 5.90927 7.74468 5.41586C8.07432 4.92255 8.25027 4.34252 8.25027 3.74917C8.25027 2.95353 7.93421 2.19046 7.37159 1.62785C6.80899 1.06524 6.04592 0.749174 5.25027 0.749174ZM17.2503 0.749174C16.6569 0.749174 16.0769 0.925124 15.5836 1.25477C15.0902 1.58441 14.7057 2.05295 14.4786 2.60112C14.2516 3.1493 14.1921 3.7525 14.3079 4.33445C14.4237 4.91636 14.7094 5.45092 15.129 5.87045C15.5485 6.29008 16.0831 6.57574 16.665 6.69152C17.247 6.8073 17.8502 6.74786 18.3983 6.5208C18.9465 6.29374 19.4151 5.90927 19.7447 5.41586C20.0743 4.92255 20.2503 4.34252 20.2503 3.74917C20.2503 2.95353 19.9342 2.19046 19.3716 1.62785C18.809 1.06524 18.0459 0.749174 17.2503 0.749174Z" fill="var(--fill-0, #FCFCFD)"/>
<path id="Vector_2" d="M22.2003 9.59917C22.1215 9.65824 22.0318 9.70127 21.9365 9.72574C21.841 9.7502 21.7417 9.75555 21.6442 9.74167C21.5467 9.7277 21.4529 9.6947 21.3681 9.64455C21.2834 9.59439 21.2093 9.52802 21.1503 9.44917C20.6982 8.84158 20.1098 8.34855 19.4325 8.00983C18.7551 7.6712 18.0076 7.49627 17.2503 7.49917C17.0513 7.49917 16.8606 7.42014 16.7199 7.27952C16.5793 7.13889 16.5003 6.94811 16.5003 6.74917C16.5003 6.55024 16.5793 6.35955 16.7199 6.21883C16.8606 6.0782 17.0513 5.99917 17.2503 5.99917C17.6711 5.99917 18.0834 5.88114 18.4405 5.65849C18.7976 5.43583 19.0852 5.11745 19.2704 4.7396C19.4557 4.36175 19.5312 3.93951 19.4885 3.52087C19.4458 3.10222 19.2865 2.70395 19.0288 2.37127C18.7711 2.0386 18.4252 1.78487 18.0306 1.63889C17.6359 1.49292 17.2082 1.46056 16.796 1.54549C16.3838 1.63041 16.0038 1.82922 15.6989 2.11934C15.3941 2.40945 15.1767 2.77924 15.0715 3.18669C15.0469 3.2821 15.0037 3.37173 14.9445 3.45046C14.8852 3.52919 14.811 3.59547 14.7262 3.64553C14.6413 3.69559 14.5474 3.72844 14.4498 3.7422C14.3522 3.75596 14.2529 3.75037 14.1575 3.72575C14.062 3.70113 13.9724 3.65795 13.8937 3.5987C13.815 3.53943 13.7487 3.46524 13.6986 3.38036C13.6486 3.29548 13.6157 3.20158 13.602 3.104C13.5882 3.00643 13.5937 2.9071 13.6184 2.81169C13.7645 2.24667 14.0403 1.72353 14.4241 1.2839C14.8079 0.844255 15.2889 0.500258 15.8291 0.27927C16.3692 0.0582736 16.9535 -0.0336016 17.5354 0.010939C18.1172 0.0554703 18.6806 0.235208 19.1809 0.535827C19.681 0.836445 20.1042 1.24966 20.4166 1.74258C20.729 2.2355 20.922 2.79454 20.9803 3.3752C21.0387 3.95585 20.9607 4.54212 20.7526 5.08736C20.5445 5.63252 20.2119 6.12161 19.7815 6.51574C20.8013 6.9573 21.6879 7.65799 22.3531 8.54824C22.4121 8.62727 22.4551 8.71708 22.4795 8.8127C22.5037 8.90833 22.5089 9.0078 22.4947 9.10539C22.4805 9.20308 22.4472 9.29692 22.3967 9.38167C22.3462 9.46633 22.2794 9.5403 22.2003 9.59917ZM17.149 15.3742C17.2014 15.4596 17.2361 15.5545 17.2512 15.6535C17.2662 15.7526 17.2613 15.8536 17.2367 15.9507C17.212 16.0478 17.1682 16.139 17.1078 16.2188C17.0474 16.2986 16.9716 16.3657 16.8848 16.4157C16.7981 16.4658 16.7022 16.498 16.6028 16.5105C16.5035 16.5229 16.4026 16.5153 16.3062 16.4881C16.2098 16.461 16.1198 16.4148 16.0416 16.3523C15.9634 16.2897 15.8984 16.2122 15.8506 16.1242C15.3781 15.3244 14.7052 14.6616 13.8984 14.2012C13.0916 13.7408 12.1788 13.4986 11.2498 13.4986C10.3208 13.4986 9.40799 13.7408 8.60119 14.2012C7.79439 14.6616 7.12155 15.3244 6.64903 16.1242C6.60215 16.2138 6.53761 16.293 6.45932 16.357C6.38102 16.4211 6.29058 16.4687 6.19344 16.4968C6.09629 16.525 5.99444 16.5333 5.89404 16.5211C5.79362 16.5088 5.69671 16.4765 5.60914 16.4259C5.52157 16.3752 5.44513 16.3075 5.38445 16.2265C5.32377 16.1455 5.28007 16.0532 5.256 15.955C5.23194 15.8567 5.228 15.7546 5.24442 15.6549C5.26083 15.555 5.29727 15.4596 5.35153 15.3742C6.07866 14.1249 7.18734 13.1417 8.51466 12.5692C7.76778 11.9974 7.21887 11.2059 6.9451 10.3059C6.67132 9.40595 6.68644 8.44286 6.98833 7.55195C7.29022 6.66105 7.8637 5.88714 8.62818 5.33908C9.39262 4.79096 10.3096 4.49618 11.2503 4.49618C12.191 4.49618 13.1079 4.79096 13.8724 5.33908C14.6369 5.88714 15.2104 6.66105 15.5122 7.55195C15.8141 8.44286 15.8292 9.40595 15.5555 10.3059C15.2817 11.2059 14.7328 11.9974 13.9859 12.5692C15.3132 13.1417 16.4219 14.1249 17.149 15.3742ZM11.2503 11.9992C11.8436 11.9992 12.4236 11.8232 12.917 11.4936C13.4104 11.164 13.7948 10.6954 14.0219 10.1472C14.249 9.59908 14.3084 8.99589 14.1926 8.41389C14.0769 7.83199 13.7912 7.29742 13.3717 6.87789C12.952 6.45827 12.4175 6.17261 11.8356 6.05683C11.2536 5.94105 10.6504 6.00049 10.1022 6.22755C9.55406 6.45461 9.08549 6.83917 8.75587 7.33249C8.42623 7.8258 8.25028 8.40583 8.25028 8.99917C8.25028 9.79483 8.56635 10.5579 9.12899 11.1205C9.69159 11.6831 10.4546 11.9992 11.2503 11.9992ZM6.00028 6.74917C6.00028 6.55024 5.92126 6.35955 5.78062 6.21883C5.63997 6.0782 5.44919 5.99917 5.25028 5.99917C4.82947 5.99917 4.41709 5.88114 4.06001 5.65849C3.70291 5.43583 3.41543 5.11745 3.23019 4.7396C3.04496 4.36175 2.96939 3.93951 3.0121 3.52087C3.0548 3.10222 3.21405 2.70395 3.47176 2.37127C3.72947 2.0386 4.07532 1.78487 4.47 1.63889C4.86469 1.49292 5.29241 1.46056 5.70457 1.54549C6.11672 1.63041 6.4968 1.82922 6.80164 2.11934C7.10647 2.40945 7.32383 2.77924 7.42903 3.18669C7.47876 3.37939 7.60301 3.54443 7.77442 3.64553C7.94584 3.74662 8.1504 3.77548 8.3431 3.72575C8.53579 3.67602 8.70084 3.55178 8.8019 3.38036C8.90306 3.20894 8.93193 3.00439 8.88215 2.81169C8.73618 2.24667 8.46027 1.72353 8.07648 1.2839C7.69271 0.844255 7.21161 0.500258 6.67149 0.27927C6.13137 0.0582736 5.54713 -0.0336016 4.96525 0.010939C4.38337 0.0554703 3.81991 0.235208 3.31972 0.535827C2.81952 0.836445 2.39639 1.24966 2.08399 1.74258C1.7716 2.2355 1.57855 2.79454 1.52022 3.3752C1.46189 3.95585 1.53989 4.54212 1.74801 5.08736C1.95613 5.63252 2.28862 6.12161 2.71903 6.51574C1.70023 6.95777 0.8147 7.65836 0.150284 8.54824C0.0308129 8.70742 -0.0205517 8.90749 0.00749079 9.10445C0.0355333 9.30142 0.140686 9.47927 0.299815 9.5987C0.458947 9.71824 0.659019 9.76952 0.856015 9.74149C1.05302 9.71345 1.23081 9.60836 1.35028 9.44917C1.80234 8.84158 2.39073 8.34855 3.06812 8.00983C3.7455 7.6712 4.49295 7.49627 5.25028 7.49917C5.44919 7.49917 5.63997 7.42014 5.78062 7.27952C5.92126 7.13889 6.00028 6.94811 6.00028 6.74917Z" fill="var(--fill-0, #FFD466)"/>
</g>
</svg>
