<svg preserveAspectRatio="none" width="100%" height="100%" overflow="visible" style="display: block;" viewBox="0 0 16 16" fill="none" xmlns="http://www.w3.org/2000/svg">
<path id="Vector" d="M8.00596 0C1.85215 0 -1.99398 6.66666 1.08293 12C4.15983 17.3333 11.8521 17.3333 14.929 12C15.6306 10.7838 16 9.40429 16 8C15.9953 3.58365 12.419 0.00466837 8.00596 0ZM8.00596 14.7692C2.79889 14.7695 -0.455481 9.12858 2.14786 4.61564C4.75119 0.10271 11.26 0.102417 13.8638 4.61512C14.4575 5.64423 14.7701 6.81165 14.7701 8C14.7659 11.7368 11.74 14.765 8.00596 14.7692ZM11.6955 8C11.6955 8.33986 11.4202 8.61537 11.0806 8.61538H8.62089V11.0769C8.62089 11.5506 8.10845 11.8467 7.6985 11.6099C7.50824 11.4999 7.39104 11.2968 7.39104 11.0769V8.61538H4.93133C4.45797 8.61536 4.1621 8.10253 4.39881 7.69228C4.50865 7.50189 4.71165 7.38462 4.93133 7.38462H7.39104V4.92307C7.39104 4.44936 7.90348 4.15328 8.31342 4.39014C8.50368 4.50006 8.62089 4.70322 8.62089 4.92307V7.38462H11.0806C11.4202 7.38463 11.6955 7.66014 11.6955 8Z" fill="var(--fill-0, #FCFCFD)"/>
</svg>
