<svg preserveAspectRatio="none" width="100%" height="100%" overflow="visible" style="display: block;" viewBox="0 0 16 16" fill="none" xmlns="http://www.w3.org/2000/svg">
<g id="Paper Plane Tilt Streamline Phosphor Regular" clip-path="url(#clip0_119_4733)">
<path id="Vector" d="M15.5143 0.487806C15.2276 0.201225 14.8083 0.0919875 14.4182 0.202212H14.4077L0.97205 4.27896C0.143606 4.51771 -0.115712 5.56375 0.505281 6.16183C0.591319 6.24469 0.690056 6.31326 0.797756 6.36492L6.74207 9.26008L9.63303 15.2009C9.81663 15.5927 10.2111 15.8421 10.6438 15.84C10.676 15.84 10.7082 15.8386 10.7404 15.8358C11.2033 15.7983 11.5941 15.477 11.7204 15.0301L15.7943 1.59449V1.58399C15.906 1.19485 15.7989 0.775744 15.5143 0.487806ZM10.6501 14.7095L10.6466 14.7193V14.7144L7.84246 8.95349L11.2024 5.59354C11.4993 5.28101 11.3466 4.76426 10.9275 4.66338C10.7429 4.61895 10.5484 4.67107 10.4107 4.80184L7.05076 8.1618L1.28775 5.35764H1.28285L14.7122 1.28019L10.6501 14.7095Z" fill="var(--fill-0, #FCFCFD)"/>
</g>
<defs>
<clipPath id="clip0_119_4733">
<rect width="16" height="16" fill="white"/>
</clipPath>
</defs>
</svg>
