<svg preserveAspectRatio="none" width="100%" height="100%" overflow="visible" style="display: block;" viewBox="0 0 28 24" fill="none" xmlns="http://www.w3.org/2000/svg">
<g id="Wallet Cards Streamline Lucide Line">
<path id="Vector" d="M5.83333 3H22.1667C22.1667 3 24.5 3 24.5 5V19C24.5 19 24.5 21 22.1667 21H5.83333C5.83333 21 3.5 21 3.5 19V5C3.5 5 3.5 3 5.83333 3Z" stroke="var(--stroke-0, #120048)" stroke-width="2" stroke-linecap="round" stroke-linejoin="round"/>
<path id="Vector_2" d="M3.5 9C3.5 8.46957 3.74583 7.96086 4.18342 7.58579C4.621 7.21071 5.21449 7 5.83333 7H22.1667C22.7855 7 23.379 7.21071 23.8166 7.58579C24.2542 7.96086 24.5 8.46957 24.5 9" stroke="var(--stroke-0, #120048)" stroke-width="2" stroke-linecap="round" stroke-linejoin="round"/>
<path id="Vector_3" d="M3.5 11H7C7.93333 11 8.86667 11.3 9.45 11.9L10.7333 12.8C12.6 14.4 15.5167 14.4 17.3833 12.8L18.6667 11.9C19.25 11.4 20.1833 11 21.1167 11H24.5" stroke="var(--stroke-0, #120048)" stroke-width="2" stroke-linecap="round" stroke-linejoin="round"/>
</g>
</svg>
