<svg preserveAspectRatio="none" width="100%" height="100%" overflow="visible" style="display: block;" viewBox="0 0 23.52 18.816" fill="none" xmlns="http://www.w3.org/2000/svg">
<path id="Vector" d="M21.952 2.352H19.6V0.784003C19.6 0.350991 19.249 -1.87492e-05 18.816 7.51147e-10H4.704C4.271 -1.87492e-05 3.92 0.350991 3.92 0.784003V2.352H1.568C0.702019 2.352 0 3.05402 0 3.92V5.488C0 7.65303 1.75497 9.40809 3.92 9.408H4.2777C5.22162 12.3994 7.85518 14.542 10.976 14.8578V17.248H8.624C8.02048 17.2487 7.64399 17.9024 7.94633 18.4247C8.08633 18.6666 8.34452 18.8157 8.624 18.816H14.896C15.4995 18.8153 15.876 18.1616 15.5737 17.6393C15.4337 17.3974 15.1755 17.2483 14.896 17.248H12.544V14.8548C15.6741 14.5383 18.2711 12.3421 19.2158 9.408H19.6C21.7649 9.40791 23.52 7.65289 23.52 5.488V3.92C23.52 3.05405 22.818 2.35204 21.952 2.352ZM3.92 7.84C2.62107 7.83994 1.568 6.78693 1.568 5.488V3.92H3.92V7.056C3.92 7.31733 3.93274 7.57867 3.95822 7.84H3.92ZM18.032 6.9678C18.032 10.4488 15.19 13.3025 11.76 13.328C8.29607 13.328 5.488 10.5199 5.488 7.056V1.568H18.032V6.9678ZM21.952 5.488C21.952 6.78693 20.8989 7.83994 19.6 7.84H19.551C19.5832 7.55037 19.5995 7.2592 19.6 6.9678V3.92H21.952V5.488Z" fill="var(--fill-0, #FCFCFD)"/>
</svg>
