<svg preserveAspectRatio="none" width="100%" height="100%" overflow="visible" style="display: block;" viewBox="0 0 15.3333 15.3333" fill="none" xmlns="http://www.w3.org/2000/svg">
<g id="Info Streamline Lucide Line" clip-path="url(#clip0_157_2502)">
<path id="Vector" d="M1 7.66667C1 9.43478 1.70238 11.1305 2.95262 12.3807C4.20286 13.631 5.89856 14.3333 7.66667 14.3333C9.43478 14.3333 11.1305 13.631 12.3807 12.3807C13.631 11.1305 14.3333 9.43478 14.3333 7.66667C14.3333 5.89856 13.631 4.20286 12.3807 2.95262C11.1305 1.70238 9.43478 1 7.66667 1C5.89856 1 4.20286 1.70238 2.95262 2.95262C1.70238 4.20286 1 5.89856 1 7.66667Z" stroke="var(--stroke-0, #2F04B0)" stroke-width="2" stroke-linecap="round" stroke-linejoin="round"/>
<path id="Vector_2" d="M7.66666 10.2225V7.66699" stroke="var(--stroke-0, #2F04B0)" stroke-width="2" stroke-linecap="round" stroke-linejoin="round"/>
<path id="Vector_3" d="M7.66667 5.11111H7.67333" stroke="var(--stroke-0, #2F04B0)" stroke-width="2" stroke-linecap="round" stroke-linejoin="round"/>
</g>
<defs>
<clipPath id="clip0_157_2502">
<rect width="15.3333" height="15.3333" fill="white"/>
</clipPath>
</defs>
</svg>
