<svg preserveAspectRatio="none" width="100%" height="100%" overflow="visible" style="display: block;" viewBox="0 0 32 32" fill="none" xmlns="http://www.w3.org/2000/svg">
<g id="Paw Print Streamline Phosphor Regular">
<rect width="32" height="32" rx="7.91451" fill="var(--fill-0, #1E3A8A)"/>
<path id="Vector" d="M25.3075 10.6676C22.9192 10.6676 21.4265 13.253 22.6206 15.3214C23.8148 17.3897 26.8001 17.3897 27.9943 15.3214C28.2666 14.8497 28.41 14.3147 28.41 13.7701C28.41 12.0567 27.0209 10.6676 25.3075 10.6676ZM25.3075 15.0998C24.2839 15.0998 23.6442 13.9918 24.1559 13.1053C24.6677 12.2189 25.9471 12.2188 26.4589 13.1052C26.5757 13.3074 26.6371 13.5367 26.6371 13.7701C26.6371 14.5044 26.0418 15.0997 25.3075 15.0998ZM9.79503 13.7701C9.79503 11.3818 7.20962 9.88913 5.14129 11.0833C3.07297 12.2774 3.07297 15.2628 5.14129 16.4569C5.61293 16.7292 6.14794 16.8726 6.69254 16.8726C8.40599 16.8726 9.79503 15.4836 9.79503 13.7701ZM6.69254 15.0998C5.66898 15.0998 5.02927 13.9918 5.54101 13.1053C6.05275 12.2189 7.33219 12.2188 7.84401 13.1052C7.96073 13.3074 8.02218 13.5367 8.02218 13.7701C8.02218 14.5044 7.42686 15.0997 6.69254 15.0998ZM12.0111 11.5541C14.3994 11.5541 15.8921 8.96864 14.6979 6.90032C13.5038 4.832 10.5184 4.832 9.32425 6.90032C9.05195 7.37196 8.9086 7.90696 8.9086 8.45157C8.9086 10.165 10.2976 11.5541 12.0111 11.5541ZM12.0111 7.12193C13.0346 7.12197 13.6744 8.23003 13.1626 9.11644C12.6507 10.0028 11.3713 10.0028 10.8596 9.11634C10.7429 8.91421 10.6815 8.68495 10.6815 8.45157C10.6815 7.7172 11.2767 7.12189 12.0111 7.12193ZM19.9889 11.5541C22.3772 11.5541 23.8699 8.96864 22.6758 6.90032C21.4816 4.832 18.4962 4.832 17.3021 6.90032C17.0298 7.37196 16.8864 7.90696 16.8864 8.45157C16.8864 10.165 18.2755 11.5541 19.9889 11.5541ZM19.9889 7.12193C21.0125 7.12197 21.6522 8.23003 21.1404 9.11644C20.6286 10.0028 19.3491 10.0028 18.8374 9.11634C18.7207 8.91421 18.6593 8.68495 18.6593 8.45157C18.6593 7.7172 19.2546 7.12189 19.9889 7.12193ZM22.5507 18.2975C21.6413 17.7959 20.9688 16.9531 20.6814 15.9552C19.6335 12.3514 15.0774 11.2334 12.4804 13.9429C11.9366 14.5102 11.538 15.2006 11.3186 15.9552C11.0339 16.9495 10.3664 17.7903 9.46262 18.2931C6.46189 19.9168 6.34414 24.18 9.25067 25.9668C9.94767 26.3953 10.7497 26.6225 11.5679 26.6233C12.1586 26.625 12.7436 26.507 13.2875 26.2765C15.0217 25.5613 16.9684 25.5613 18.7025 26.2765C21.8312 27.6372 25.2598 25.1007 24.8738 21.7108C24.7087 20.2602 23.8398 18.9829 22.5507 18.2975ZM20.4321 24.8504C20.0722 24.8507 19.716 24.778 19.385 24.6366C17.214 23.7398 14.7761 23.7398 12.605 24.6366C10.7248 25.4461 8.67323 23.9167 8.91224 21.8836C9.01436 21.015 9.53707 20.2521 10.3103 19.8432C11.6289 19.115 12.6039 17.8925 13.0205 16.4449C13.6863 14.1513 16.5853 13.4385 18.2388 15.1619C18.5857 15.5235 18.8398 15.9637 18.9795 16.4449C19.3975 17.8952 20.3754 19.1195 21.6975 19.8477C23.5015 20.8152 23.5816 23.3729 21.8417 24.4514C21.4185 24.7138 20.9301 24.852 20.4321 24.8504Z" fill="var(--fill-0, #FCFCFD)"/>
</g>
</svg>
