<svg preserveAspectRatio="none" width="100%" height="100%" overflow="visible" style="display: block;" viewBox="0 0 24 24" fill="none" xmlns="http://www.w3.org/2000/svg">
<g id="Bank Streamline Phosphor Regular">
<path id="Vector" d="M1.808 10.4318H4.16V16.7038H2.592C1.98848 16.7044 1.61199 17.3582 1.91432 17.8805C2.05433 18.1224 2.31251 18.2715 2.592 18.2718H21.408C22.0115 18.2711 22.388 17.6173 22.0857 17.095C21.9457 16.8531 21.6875 16.7041 21.408 16.7038H19.84V10.4318H22.192C22.7955 10.4312 23.1721 9.77743 22.8698 9.25508C22.8048 9.14282 22.713 9.04843 22.6026 8.98038L12.4106 2.70837C12.1588 2.55353 11.8412 2.55353 11.5894 2.70837L1.39738 8.98038C0.883631 9.29708 0.905381 10.0512 1.43653 10.3377C1.55067 10.3993 1.6783 10.4316 1.808 10.4318ZM5.728 10.4318H8.864V16.7038H5.728V10.4318ZM13.568 10.4318V16.7038H10.432V10.4318H13.568ZM18.272 16.7038H15.136V10.4318H18.272V16.7038ZM12 4.29597L19.4225 8.86375H4.57748L12 4.29597ZM23.76 20.6238C23.76 21.0567 23.409 21.4078 22.976 21.4078H1.024C0.420478 21.4071 0.0439875 20.7534 0.346322 20.231C0.486328 19.9891 0.744516 19.8401 1.024 19.8398H22.976C23.409 19.8398 23.76 20.1908 23.76 20.6238Z" fill="var(--fill-0, #FFD466)"/>
</g>
</svg>
