<svg preserveAspectRatio="none" width="100%" height="100%" overflow="visible" style="display: block;" viewBox="0 0 30.2188 30.2188" fill="none" xmlns="http://www.w3.org/2000/svg">
<g id="Frame 230">
<rect width="30.2188" height="30.2188" rx="6.29559" fill="var(--fill-0, #101010)"/>
<path id="Vector" d="M22.6969 5.30864C22.3259 5.01907 21.8528 4.95704 21.4335 5.14299C20.2374 5.67192 17.8222 6.55928 15.1094 6.55928C12.3967 6.55928 9.98061 5.67192 8.78281 5.14299C7.88893 4.7487 6.92549 5.49782 6.92515 6.58738V11.9901C6.92515 15.462 7.74784 18.7373 9.24232 21.2105C10.7905 23.7738 12.8741 25.1824 15.1094 25.1824C17.3447 25.1824 19.4283 23.7709 20.9765 21.2105C22.471 18.7393 23.2937 15.464 23.2937 11.992V6.58738C23.2929 6.07528 23.0695 5.59669 22.6969 5.30864ZM21.9296 11.993C21.9296 15.1549 21.1914 18.1183 19.852 20.3367C18.5656 22.465 16.8818 23.6372 15.1094 23.6372C13.337 23.6372 11.6533 22.465 10.3668 20.3358C9.02749 18.1154 8.28919 15.154 8.28919 11.992V6.58738C9.57736 7.15603 12.175 8.10927 15.1094 8.10927C18.0438 8.10927 20.6423 7.15603 21.9296 6.58738V11.993ZM20.3951 13.821C20.7449 14.2684 20.5372 14.9783 20.0213 15.0989C19.7819 15.1548 19.5344 15.0613 19.3721 14.8536C19.1436 14.563 18.6176 14.3373 18.1785 14.3373C17.7395 14.3373 17.21 14.564 16.985 14.8536C16.6349 15.3011 15.9898 15.1501 15.8238 14.5818C15.7468 14.3181 15.7995 14.0277 15.9619 13.82C16.4487 13.2019 17.3379 12.7873 18.1785 12.7873C19.0191 12.7873 19.9049 13.2029 20.3951 13.821ZM12.0403 14.3373C11.5979 14.3373 11.0718 14.564 10.8468 14.8536C10.4967 15.3011 9.85157 15.1501 9.68562 14.5818C9.6086 14.3181 9.66125 14.0277 9.82374 13.82C10.3139 13.2019 11.2031 12.7873 12.0403 12.7873C12.8775 12.7873 13.7667 13.2019 14.2569 13.82C14.607 14.2674 14.3996 14.9778 13.8835 15.0986C13.644 15.1547 13.3963 15.0613 13.2339 14.8536C13.0088 14.564 12.4828 14.3373 12.0403 14.3373ZM18.5579 18.7151C16.756 21.1445 13.4628 21.1445 11.6609 18.7151C11.32 18.2613 11.5392 17.5583 12.0555 17.4497C12.2952 17.3992 12.5402 17.4979 12.6985 17.7085C13.9555 19.4138 16.2634 19.4138 17.5204 17.7085C17.8613 17.2547 18.5067 17.3905 18.6821 17.9529C18.7635 18.2139 18.7161 18.5044 18.5579 18.7151Z" fill="var(--fill-0, #AE1509)"/>
</g>
</svg>
