<svg preserveAspectRatio="none" width="100%" height="100%" overflow="visible" style="display: block;" viewBox="0 0 32.2667 32.2667" fill="none" xmlns="http://www.w3.org/2000/svg">
<g id="Plus Circle Streamline Phosphor Regular">
<rect width="32.2667" height="32.2667" rx="16.1333" fill="var(--fill-0, #2F04B0)"/>
<path id="Vector" d="M16.1419 4.63467C7.29023 4.63467 1.75793 14.2169 6.18377 21.8827C10.6096 29.5484 21.6742 29.5484 26.1 21.8827C27.1093 20.1346 27.6406 18.1518 27.6406 16.1333C27.6339 9.78557 22.4897 4.64138 16.1419 4.63467ZM16.1419 25.863C8.65203 25.8633 3.97092 17.7555 7.71558 11.2689C11.4602 4.78229 20.8226 4.78187 24.5678 11.2681C25.4219 12.7473 25.8715 14.4253 25.8715 16.1333C25.8655 21.5043 21.5129 25.8569 16.1419 25.863ZM21.449 16.1333C21.449 16.6218 21.053 17.0178 20.5645 17.0178H17.0264V20.5559C17.0264 21.2368 16.2893 21.6624 15.6997 21.3219C15.426 21.1639 15.2574 20.8719 15.2574 20.5559V17.0178H11.7193C11.0385 17.0178 10.6129 16.2807 10.9534 15.691C11.1114 15.4174 11.4034 15.2488 11.7193 15.2488H15.2574V11.7108C15.2574 11.0299 15.9945 10.6043 16.5842 10.9448C16.8578 11.1028 17.0264 11.3948 17.0264 11.7108V15.2488H20.5645C21.053 15.2488 21.449 15.6448 21.449 16.1333Z" fill="var(--fill-0, #FCFCFD)"/>
</g>
</svg>
