<svg preserveAspectRatio="none" width="100%" height="100%" overflow="visible" style="display: block;" viewBox="0 0 28.2884 28.2884" fill="none" xmlns="http://www.w3.org/2000/svg">
<g id="Hand Coins Streamline Phosphor Regular">
<rect width="28.2884" height="28.2884" rx="5.89342" fill="var(--fill-0, #120048)"/>
<path id="Vector" d="M22.4486 13.7286C21.984 13.3712 21.3793 13.2507 20.8132 13.4029L17.5918 14.1436C17.9124 12.7895 16.8852 11.491 15.4938 11.4912H11.6395C10.9857 11.4895 10.3584 11.7493 9.89714 12.2126L8.15555 13.955H5.94662C5.26627 13.955 4.71473 14.5065 4.71473 15.1868V18.2666C4.71473 18.9469 5.26627 19.4985 5.94662 19.4985H13.9539C14.0043 19.4985 14.0544 19.4923 14.1033 19.48L19.0308 18.2481C19.0622 18.2406 19.0929 18.2303 19.1225 18.2173L22.1152 16.9438L22.1491 16.9284C23.4025 16.3021 23.5654 14.5788 22.4516 13.7286H22.4486ZM5.94662 15.1868H7.79446V18.2666H5.94662V15.1868ZM21.6093 15.819L18.6836 17.0647L13.8769 18.2666H9.02635V14.8258L10.7687 13.0842C10.9989 12.8521 11.3126 12.722 11.6395 12.7231H15.4938C16.205 12.7231 16.6495 13.4931 16.2939 14.109C16.1288 14.3948 15.8238 14.5709 15.4938 14.5709H13.338C12.8638 14.5714 12.568 15.085 12.8055 15.4954C12.9155 15.6854 13.1184 15.8026 13.338 15.8028H15.8017C15.8481 15.8027 15.8943 15.7975 15.9396 15.7874L21.0981 14.6009L21.122 14.5948C21.6131 14.4584 22.0677 14.9049 21.9402 15.3984C21.8934 15.5793 21.7724 15.7321 21.607 15.819H21.6093ZM17.3416 10.2593C17.4938 10.2595 17.6457 10.2471 17.7959 10.2223C18.4767 12.2445 21.0912 12.7714 22.5021 11.1707C23.9129 9.57003 23.0619 7.04232 20.9703 6.62082C20.6402 6.5543 20.3008 6.54848 19.9686 6.60365C19.2882 4.58136 16.6737 4.05398 15.2626 5.65439C13.8514 7.2548 14.7019 9.78267 16.7935 10.2046C16.974 10.241 17.1575 10.2593 17.3416 10.2593ZM21.9612 9.33537C21.9612 10.5208 20.678 11.2616 19.6514 10.6689C18.6248 10.0762 18.6248 8.5945 19.6514 8.00181C19.8855 7.86666 20.151 7.79551 20.4213 7.79551C21.2718 7.79551 21.9612 8.48493 21.9612 9.33537ZM17.3416 5.94767C18.0319 5.94802 18.6377 6.40776 18.8237 7.07254C18.1858 7.52137 17.7666 8.21818 17.6688 8.99198C17.5613 9.0152 17.4516 9.02707 17.3416 9.02739C16.1562 9.02658 15.4162 7.74284 16.0096 6.71668C16.2847 6.2411 16.7922 5.94806 17.3416 5.94767Z" fill="var(--fill-0, #FCFCFD)"/>
</g>
</svg>
