<svg preserveAspectRatio="none" width="100%" height="100%" overflow="visible" style="display: block;" viewBox="0 0 16 16" fill="none" xmlns="http://www.w3.org/2000/svg">
<g id="Hand Helping Streamline Lucide Line">
<path id="Vector" d="M7.33333 8H8.66667C9.02029 8 9.35943 7.85952 9.60948 7.60948C9.85952 7.35943 10 7.02029 10 6.66667C10 6.31304 9.85952 5.97391 9.60948 5.72386C9.35943 5.47381 9.02029 5.33333 8.66667 5.33333H6.66667C6.26667 5.33333 5.93333 5.46667 5.73333 5.73333L2 9.33333" stroke="var(--stroke-0, #FCFCFD)" stroke-linecap="round" stroke-linejoin="round"/>
<path id="Vector_2" d="M4.66667 12L5.73333 11.0667C5.93333 10.8 6.26667 10.6667 6.66667 10.6667H9.33333C10.0667 10.6667 10.7333 10.4 11.2 9.86667L14.2667 6.93333C14.5239 6.69022 14.6741 6.35486 14.6841 6.00105C14.6941 5.64723 14.5631 5.30393 14.32 5.04667C14.0769 4.78941 13.7415 4.63926 13.3877 4.62926C13.0339 4.61926 12.6906 4.75022 12.4333 4.99333L9.63333 7.59333" stroke="var(--stroke-0, #FCFCFD)" stroke-linecap="round" stroke-linejoin="round"/>
<path id="Vector_3" d="M1.33333 8.66667L5.33333 12.6667" stroke="var(--stroke-0, #FCFCFD)" stroke-linecap="round" stroke-linejoin="round"/>
</g>
</svg>
