<svg preserveAspectRatio="none" width="100%" height="100%" overflow="visible" style="display: block;" viewBox="0 0 16 16" fill="none" xmlns="http://www.w3.org/2000/svg">
<g id="Siren Streamline Lucide Line" clip-path="url(#clip0_119_4832)">
<path id="Vector" d="M4.66667 12V8C4.66667 7.11594 5.01786 6.2681 5.64298 5.64298C6.2681 5.01786 7.11594 4.66667 8 4.66667C8.88405 4.66667 9.7319 5.01786 10.357 5.64298C10.9821 6.2681 11.3333 7.11594 11.3333 8V12" stroke="var(--stroke-0, #AE1509)" stroke-linecap="round" stroke-linejoin="round"/>
<path id="Vector_2" d="M3.33333 14C3.33333 14.1768 3.40357 14.3464 3.5286 14.4714C3.65362 14.5964 3.82319 14.6667 4 14.6667H12C12.1768 14.6667 12.3464 14.5964 12.4714 14.4714C12.5964 14.3464 12.6667 14.1768 12.6667 14V13.3333C12.6667 12.9797 12.5262 12.6406 12.2761 12.3905C12.0261 12.1405 11.687 12 11.3333 12H4.66667C4.31304 12 3.97391 12.1405 3.72386 12.3905C3.47381 12.6406 3.33333 12.9797 3.33333 13.3333V14Z" stroke="var(--stroke-0, #AE1509)" stroke-linecap="round" stroke-linejoin="round"/>
<path id="Vector_3" d="M14 8H14.6667" stroke="var(--stroke-0, #AE1509)" stroke-linecap="round" stroke-linejoin="round"/>
<path id="Vector_4" d="M12.3333 3L12 3.33333" stroke="var(--stroke-0, #AE1509)" stroke-linecap="round" stroke-linejoin="round"/>
<path id="Vector_5" d="M1.33333 8H2" stroke="var(--stroke-0, #AE1509)" stroke-linecap="round" stroke-linejoin="round"/>
<path id="Vector_6" d="M8 1.33333V2" stroke="var(--stroke-0, #AE1509)" stroke-linecap="round" stroke-linejoin="round"/>
<path id="Vector_7" d="M3.286 3.286L3.75733 3.75733" stroke="var(--stroke-0, #AE1509)" stroke-linecap="round" stroke-linejoin="round"/>
<path id="Vector_8" d="M8 8V12" stroke="var(--stroke-0, #AE1509)" stroke-linecap="round" stroke-linejoin="round"/>
</g>
<defs>
<clipPath id="clip0_119_4832">
<rect width="16" height="16" fill="white"/>
</clipPath>
</defs>
</svg>
