<svg preserveAspectRatio="none" width="100%" height="100%" overflow="visible" style="display: block;" viewBox="0 0 30.2188 30.2188" fill="none" xmlns="http://www.w3.org/2000/svg">
<g id="Drop Thin Streamline Phosphor Thin">
<rect width="30.2188" height="30.2188" rx="6.29559" fill="var(--fill-0, #120048)"/>
<path id="Vector" d="M19.1628 8.54453C18.0534 7.26258 16.8048 6.10807 15.44 5.10232C15.3143 5.01452 15.1471 5.01452 15.0214 5.10232C13.6579 6.10828 12.4105 7.26278 11.3022 8.54453C8.84989 11.3625 7.55471 14.3212 7.55471 17.1016C7.55471 23.012 13.9529 26.706 19.0714 23.7508C21.4469 22.3793 22.9103 19.8447 22.9103 17.1016C22.9103 14.3212 21.6152 11.3625 19.1628 8.54453ZM15.2325 24.0482C11.3977 24.0442 8.28996 20.9365 8.28593 17.1016C8.28593 13.8203 10.2191 10.9045 11.8415 9.03628C12.8632 7.86692 13.9992 6.80257 15.2325 5.85913C16.4661 6.80372 17.602 7.8693 18.6236 9.03993C20.2459 10.9045 22.1791 13.8203 22.1791 17.1016C22.1751 20.9365 19.0673 24.0442 15.2325 24.0482ZM19.98 17.8941C19.6198 19.9108 18.0409 21.4893 16.0241 21.8491C16.0042 21.8527 15.984 21.8546 15.9637 21.8546C15.6823 21.8525 15.5087 21.5465 15.6512 21.3038C15.7055 21.2113 15.7977 21.1473 15.9034 21.1288C17.5651 20.8491 18.9773 19.437 19.2597 17.7716C19.3184 17.4964 19.653 17.3878 19.8621 17.5762C19.9511 17.6564 19.9951 17.7752 19.98 17.8941Z" fill="var(--fill-0, white)"/>
</g>
</svg>
