<svg preserveAspectRatio="none" width="100%" height="100%" overflow="visible" style="display: block;" viewBox="0 0 20 20" fill="none" xmlns="http://www.w3.org/2000/svg">
<g id="Download Simple Streamline Phosphor Regular">
<rect width="20" height="20" rx="5" fill="var(--fill-0, #2F04B0)"/>
<path id="Vector" d="M15.76 11.4704V15.3904C15.76 15.661 15.5406 15.8804 15.27 15.8804H4.49C4.21938 15.8804 4 15.661 4 15.3904V11.4704C4 11.0932 4.40833 10.8574 4.735 11.046C4.88661 11.1335 4.98 11.2953 4.98 11.4704V14.9004H14.78V11.4704C14.78 11.0932 15.1883 10.8574 15.515 11.046C15.6666 11.1335 15.76 11.2953 15.76 11.4704ZM9.53333 11.817C9.72473 12.0087 10.0353 12.0087 10.2267 11.817L12.6767 9.36704C12.9435 9.10017 12.8214 8.64448 12.4569 8.5468C12.2877 8.50146 12.1072 8.54983 11.9833 8.67369L10.37 10.2876V4.61036C10.37 4.23316 9.96167 3.99741 9.635 4.18601C9.4834 4.27354 9.39 4.4353 9.39 4.61036V10.2876L7.77668 8.67369C7.5098 8.40682 7.05411 8.52892 6.95643 8.89347C6.9111 9.06266 6.95947 9.24318 7.08333 9.36704L9.53333 11.817Z" fill="var(--fill-0, white)"/>
</g>
</svg>
