<svg preserveAspectRatio="none" width="100%" height="100%" overflow="visible" style="display: block;" viewBox="0 0 18.8868 18.8868" fill="none" xmlns="http://www.w3.org/2000/svg">
<g id="spotify">
<path id="Subtract" fill-rule="evenodd" clip-rule="evenodd" d="M9.44342 18.8868C4.22799 18.8868 3.50383e-05 14.6588 3.50383e-05 9.44339C3.50383e-05 4.22796 4.22799 6.94513e-06 9.44342 6.94513e-06C14.6589 6.94513e-06 18.8868 4.22796 18.8868 9.44339C18.8868 14.6588 14.6589 18.8868 9.44342 18.8868ZM10.1299 4.87766C8.25188 4.70369 6.25563 4.96966 4.48644 5.75405C4.06262 5.94191 3.87136 6.43784 4.05926 6.86161C4.24717 7.28543 4.74305 7.47669 5.16687 7.28879C6.64503 6.63342 8.34942 6.39872 9.97502 6.54931C11.611 6.70087 13.1887 7.2448 14.3878 8.16719C14.7553 8.44982 15.2823 8.38107 15.565 8.01362C15.8476 7.64617 15.7788 7.11914 15.4114 6.83647C13.9119 5.68308 12.0142 5.05218 10.1299 4.87766ZM5.02236 9.0649C6.48118 8.37415 8.13977 8.13928 9.6942 8.28589C11.2144 8.42926 12.7517 8.94952 13.9672 9.90738C14.3313 10.1943 14.3939 10.7221 14.1069 11.0862C13.82 11.4503 13.2922 11.5129 12.9281 11.226C12.0143 10.5059 10.8019 10.0766 9.53655 9.95728C8.2465 9.83561 6.89568 10.0354 5.74086 10.5822C5.32187 10.7806 4.82137 10.6018 4.62297 10.1828C4.42458 9.76384 4.60337 9.26334 5.02236 9.0649ZM9.2598 11.7131C8.11237 11.6015 6.88779 11.7727 5.79886 12.2837C5.3792 12.4806 5.1986 12.9805 5.39552 13.4002C5.59249 13.8199 6.09236 14.0004 6.51203 13.8035C7.29965 13.4339 8.21729 13.2984 9.09725 13.384C9.98438 13.4703 10.8252 13.7805 11.452 14.2909C11.8115 14.5836 12.3402 14.5295 12.6329 14.17C12.9257 13.8105 12.8715 13.2818 12.5121 12.9891C11.5831 12.2326 10.4117 11.8251 9.2598 11.7131Z" fill="var(--fill-0, #101010)"/>
</g>
</svg>
