<svg preserveAspectRatio="none" width="100%" height="100%" overflow="visible" style="display: block;" viewBox="0 0 28.4855 24" fill="none" xmlns="http://www.w3.org/2000/svg">
<g id="Sparkle Streamline Phosphor Regular" clip-path="url(#clip0_160_2606)">
<path id="Vector" d="M22.1349 12.5108L15.9295 10.5789L13.6437 5.34659C13.1344 4.18086 11.3183 3.91678 10.3747 4.87127C10.2347 5.01288 10.1245 5.17364 10.049 5.34659L7.7487 10.5789L1.53852 12.5048C0.154901 12.9339 -0.158518 14.464 0.974362 15.259C1.14244 15.377 1.33325 15.4698 1.53852 15.5334L7.7487 17.4715L10.0345 22.7037C10.5438 23.8695 12.3599 24.1336 13.3035 23.1791C13.4435 23.0375 13.5537 22.8767 13.6293 22.7037L15.9295 17.4715L22.1397 15.5456C23.5233 15.1165 23.8367 13.5864 22.7038 12.7913C22.5358 12.6734 22.345 12.5806 22.1397 12.5169L22.1349 12.5108ZM14.8467 16.0747C14.5824 16.1568 14.3739 16.3324 14.2765 16.5552L11.8391 22.1189L9.40652 16.5592C9.30921 16.3341 9.0987 16.1567 8.83145 16.0747L2.23269 14.0252L8.83145 11.9756C9.0987 11.8937 9.30921 11.7163 9.40652 11.4911L11.8391 5.93145L14.2717 11.4911C14.3691 11.7139 14.5775 11.8895 14.8419 11.9716L21.4455 14.0252L14.8467 16.0747ZM15.6889 3.48357C15.6889 3.03573 16.1198 2.67268 16.6513 2.67268H18.5762V1.05089C18.5762 0.426666 19.3783 0.036525 20.0199 0.348637C20.3177 0.493491 20.5011 0.761184 20.5011 1.05089V2.67268H22.426C23.1669 2.67268 23.63 3.34842 23.2595 3.88901C23.0876 4.1399 22.7698 4.29445 22.426 4.29446H20.5011V5.91624C20.5011 6.54047 19.6991 6.93061 19.0575 6.6185C18.7597 6.47365 18.5762 6.20595 18.5762 5.91624V4.29446H16.6513C16.1198 4.29448 15.6889 3.93142 15.6889 3.48357ZM28.2007 8.34892C28.2007 8.79675 27.7698 9.1598 27.2382 9.15982H26.2758V9.97071C26.2758 10.5949 25.4738 10.9851 24.8321 10.673C24.5343 10.5281 24.3509 10.2604 24.3509 9.97071V9.15982H23.3885C22.6476 9.15984 22.1845 8.48412 22.5549 7.94351C22.7269 7.6926 23.0446 7.53803 23.3885 7.53803H24.3509V6.72713C24.3509 6.10291 25.153 5.71277 25.7946 6.02488C26.0924 6.16973 26.2758 6.43744 26.2758 6.72713V7.53803H27.2382C27.7698 7.53803 28.2007 7.90108 28.2007 8.34892Z" fill="var(--fill-0, #FCFCFD)"/>
</g>
<defs>
<clipPath id="clip0_160_2606">
<rect width="28.4855" height="24" fill="white"/>
</clipPath>
</defs>
</svg>
