<svg preserveAspectRatio="none" width="100%" height="100%" overflow="visible" style="display: block;" viewBox="0 0 20.2532 20.2532" fill="none" xmlns="http://www.w3.org/2000/svg">
<g id="Target Streamline Phosphor Regular" clip-path="url(#clip0_157_2509)">
<path id="Vector" d="M19.0786 5.84551C22.3738 12.7372 16.9728 20.6116 9.3568 20.0195C1.74083 19.4273 -2.37812 10.8127 1.9427 4.51314C5.27994 -0.35241 12.1 -1.24876 16.5811 2.58922L18.7421 0.42725C19.1575 0.0119173 19.8667 0.201949 20.0187 0.769307C20.0893 1.03262 20.014 1.31357 19.8212 1.50633L10.67 10.6575C10.2547 11.0728 9.54551 10.8828 9.39349 10.3154C9.32293 10.0521 9.39821 9.77118 9.59097 9.57842L12.2334 6.93602C9.78513 5.31685 6.50217 6.95516 6.32404 9.88499C6.14591 12.8148 9.20622 14.8388 11.8326 13.5281C13.196 12.8477 14.0234 11.421 13.9368 9.89966C13.9038 9.31262 14.5187 8.90996 15.0436 9.17489C15.2872 9.29784 15.4467 9.54143 15.462 9.81387C15.6971 13.9165 11.4028 16.7351 7.73233 14.8874C4.06183 13.0397 3.76797 7.91143 7.20338 5.65653C9.08115 4.42401 11.5296 4.49879 13.3286 5.8436L15.4973 3.67496C10.5357 -0.444388 2.97545 2.35204 1.88875 8.70854C0.802056 15.065 7.00399 20.2142 13.0522 17.9771C17.677 16.2664 19.8312 10.951 17.7021 6.50325C17.449 5.97344 17.8643 5.36825 18.4497 5.4139C18.7214 5.4351 18.9611 5.59962 19.0786 5.84551Z" fill="var(--fill-0, #00A326)"/>
</g>
<defs>
<clipPath id="clip0_157_2509">
<rect width="20.2532" height="20.2532" fill="white"/>
</clipPath>
</defs>
</svg>
