<svg preserveAspectRatio="none" width="100%" height="100%" overflow="visible" style="display: block;" viewBox="0 0 16 16" fill="none" xmlns="http://www.w3.org/2000/svg">
<g id="Arrows Left Right Streamline Phosphor Regular" clip-path="url(#clip0_119_4724)">
<path id="Vector" d="M15.631 12.7803L12.7803 15.631C12.3921 16.0191 11.7294 15.8416 11.5873 15.3113C11.5214 15.0653 11.5917 14.8027 11.7718 14.6226L13.4065 12.9887H0.873237C0.324619 12.9887 -0.0182687 12.3948 0.256044 11.9197C0.383356 11.6992 0.618612 11.5634 0.873237 11.5634H13.4065L11.7718 9.92958C11.3837 9.54143 11.5613 8.87866 12.0915 8.73659C12.3376 8.67065 12.6001 8.741 12.7803 8.92114L15.631 11.7718C15.9097 12.0502 15.9097 12.5019 15.631 12.7803ZM3.21972 7.07887C3.60787 7.46702 4.27064 7.28943 4.41272 6.75921C4.47865 6.51314 4.4083 6.25057 4.22816 6.07044L2.59346 4.43662H15.1268C15.6754 4.43662 16.0183 3.84273 15.744 3.36761C15.6167 3.14712 15.3814 3.01129 15.1268 3.01128H2.59346L4.22816 1.37746C4.61631 0.989319 4.43872 0.326544 3.9085 0.184469C3.66243 0.118531 3.39986 0.188887 3.21972 0.369025L0.369019 3.21973C0.090325 3.49811 0.090325 3.94979 0.369019 4.22817L3.21972 7.07887Z" fill="var(--fill-0, #2F04B0)"/>
</g>
<defs>
<clipPath id="clip0_119_4724">
<rect width="16" height="16" fill="white"/>
</clipPath>
</defs>
</svg>
