<svg preserveAspectRatio="none" width="100%" height="100%" overflow="visible" style="display: block;" viewBox="0 0 24 16" fill="none" xmlns="http://www.w3.org/2000/svg">
<g id="Frame 639">
<line id="Line 174" opacity="0.25" x1="0.5" y1="4" x2="0.5" y2="12" stroke="var(--stroke-0, #120048)"/>
<g id="Caret Circle Down Streamline Phosphor Regular">
<g id="Vector">
<mask id="path-2-inside-1_119_4811" fill="white">
<path d="M16.4101 2C11.4829 2 8.40349 7.33776 10.8671 11.608C13.3306 15.8782 19.4895 15.8782 21.9531 11.608C22.5149 10.6342 22.8106 9.52968 22.8106 8.40531C22.8069 4.8693 19.9435 2.00374 16.4101 2ZM16.4101 13.8252C12.241 13.8254 9.63531 9.30893 11.7197 5.69558C13.8041 2.08224 19.0155 2.082 21.1002 5.69516C21.5756 6.51914 21.8259 7.45385 21.8259 8.40531C21.8225 11.3972 19.3998 13.8218 16.4101 13.8252ZM19.2202 7.07128C19.4127 7.26375 19.4127 7.57601 19.2202 7.76848L16.7584 10.2321C16.5661 10.4247 16.2541 10.4247 16.0618 10.2321L13.6 7.76848C13.3319 7.50013 13.4545 7.04191 13.8208 6.94369C13.9908 6.89811 14.1722 6.94674 14.2967 7.07128L16.4101 9.18689L18.5235 7.07128C18.7158 6.87861 19.0279 6.87861 19.2202 7.07128Z"/>
</mask>
<path d="M16.4101 2C11.4829 2 8.40349 7.33776 10.8671 11.608C13.3306 15.8782 19.4895 15.8782 21.9531 11.608C22.5149 10.6342 22.8106 9.52968 22.8106 8.40531C22.8069 4.8693 19.9435 2.00374 16.4101 2ZM16.4101 13.8252C12.241 13.8254 9.63531 9.30893 11.7197 5.69558C13.8041 2.08224 19.0155 2.082 21.1002 5.69516C21.5756 6.51914 21.8259 7.45385 21.8259 8.40531C21.8225 11.3972 19.3998 13.8218 16.4101 13.8252ZM19.2202 7.07128C19.4127 7.26375 19.4127 7.57601 19.2202 7.76848L16.7584 10.2321C16.5661 10.4247 16.2541 10.4247 16.0618 10.2321L13.6 7.76848C13.3319 7.50013 13.4545 7.04191 13.8208 6.94369C13.9908 6.89811 14.1722 6.94674 14.2967 7.07128L16.4101 9.18689L18.5235 7.07128C18.7158 6.87861 19.0279 6.87861 19.2202 7.07128Z" fill="var(--fill-0, #2F04B0)"/>
<path d="M16.4101 2L16.4114 0.751037H16.4101V2ZM10.8671 11.608L11.9489 10.9838L11.9489 10.9838L10.8671 11.608ZM21.9531 11.608L20.8713 10.9838L20.8713 10.9838L21.9531 11.608ZM22.8106 8.40531L24.0596 8.40531L24.0596 8.404L22.8106 8.40531ZM16.4101 13.8252L16.4101 15.0742L16.4115 15.0742L16.4101 13.8252ZM11.7197 5.69558L12.8016 6.31967L12.8016 6.31967L11.7197 5.69558ZM21.1002 5.69516L20.0184 6.31934L20.0184 6.31935L21.1002 5.69516ZM21.8259 8.40531L23.0749 8.40673V8.40531H21.8259ZM19.2202 7.07128L18.3362 7.95361L18.3372 7.9546L19.2202 7.07128ZM19.2202 7.76848L18.3372 6.88518L18.3367 6.88566L19.2202 7.76848ZM16.7584 10.2321L15.8749 9.34924L15.8745 9.34973L16.7584 10.2321ZM16.0618 10.2321L16.9457 9.34973L16.9452 9.34924L16.0618 10.2321ZM13.6 7.76848L12.7165 8.6513L12.7165 8.6513L13.6 7.76848ZM13.8208 6.94369L13.4974 5.73734L13.4974 5.73734L13.8208 6.94369ZM14.2967 7.07128L15.1803 6.18859L15.1802 6.18846L14.2967 7.07128ZM16.4101 9.18689L15.5265 10.0696L16.4101 10.9541L17.2937 10.0696L16.4101 9.18689ZM18.5235 7.07128L19.4071 7.95398L19.4075 7.95361L18.5235 7.07128ZM16.4101 2V0.751037C10.5201 0.751037 6.84209 7.13065 9.78522 12.2321L10.8671 11.608L11.9489 10.9838C9.96489 7.54487 12.4458 3.24896 16.4101 3.24896V2ZM10.8671 11.608L9.78522 12.2321C12.7294 17.3354 20.0907 17.3354 23.035 12.2321L21.9531 11.608L20.8713 10.9838C18.8883 14.4209 13.9318 14.4209 11.9489 10.9838L10.8671 11.608ZM21.9531 11.608L23.035 12.2321C23.7062 11.0686 24.0596 9.74874 24.0596 8.40531H22.8106H21.5617C21.5617 9.31062 21.3235 10.1999 20.8713 10.9838L21.9531 11.608ZM22.8106 8.40531L24.0596 8.404C24.0551 4.18011 20.6344 0.755505 16.4114 0.751038L16.4101 2L16.4088 3.24896C19.2525 3.25197 21.5587 5.5585 21.5617 8.40663L22.8106 8.40531ZM16.4101 13.8252L16.41 12.5762C13.2039 12.5764 11.1967 9.10183 12.8016 6.31967L11.7197 5.69558L10.6379 5.0715C8.07397 9.51603 11.278 15.0744 16.4101 15.0742L16.4101 13.8252ZM11.7197 5.69558L12.8016 6.31967C14.4054 3.53945 18.4144 3.53927 20.0184 6.31934L21.1002 5.69516L22.182 5.07098C19.6166 0.624736 13.2028 0.625023 10.6379 5.0715L11.7197 5.69558ZM21.1002 5.69516L20.0184 6.31935C20.3843 6.95348 20.577 7.67292 20.577 8.40531H21.8259H23.0749C23.0749 7.23477 22.767 6.08479 22.182 5.07098L21.1002 5.69516ZM21.8259 8.40531L20.577 8.4039C20.5744 10.708 18.7088 12.5736 16.4087 12.5762L16.4101 13.8252L16.4115 15.0742C20.0907 15.07 23.0707 12.0864 23.0749 8.40673L21.8259 8.40531ZM19.2202 7.07128L18.3372 7.9546C18.0417 7.65926 18.0418 7.18049 18.3372 6.88518L19.2202 7.76848L20.1032 8.65178C20.7836 7.97154 20.7837 6.86823 20.1032 6.18797L19.2202 7.07128ZM19.2202 7.76848L18.3367 6.88566L15.8749 9.34924L16.7584 10.2321L17.6419 11.1149L20.1037 8.6513L19.2202 7.76848ZM16.7584 10.2321L15.8745 9.34973C16.1701 9.05356 16.6501 9.05356 16.9457 9.34973L16.0618 10.2321L15.1778 11.1144C15.858 11.7959 16.9621 11.7959 17.6424 11.1144L16.7584 10.2321ZM16.0618 10.2321L16.9452 9.34924L14.4835 6.88566L13.6 7.76848L12.7165 8.6513L15.1783 11.1149L16.0618 10.2321ZM13.6 7.76848L14.4835 6.88566C14.8941 7.29654 14.7073 7.99908 14.1443 8.15003L13.8208 6.94369L13.4974 5.73734C12.2018 6.08474 11.7696 7.70372 12.7165 8.6513L13.6 7.76848ZM13.8208 6.94369L14.1443 8.15004C13.8829 8.22013 13.6042 8.14525 13.4132 7.95411L14.2967 7.07128L15.1802 6.18846C14.7403 5.74823 14.0988 5.57608 13.4974 5.73734L13.8208 6.94369ZM14.2967 7.07128L13.4131 7.95398L15.5265 10.0696L16.4101 9.18689L17.2937 8.3042L15.1803 6.18859L14.2967 7.07128ZM16.4101 9.18689L17.2937 10.0696L19.4071 7.95398L18.5235 7.07128L17.6399 6.18859L15.5265 8.3042L16.4101 9.18689ZM18.5235 7.07128L19.4075 7.95361C19.1118 8.24978 18.6318 8.24978 18.3362 7.95361L19.2202 7.07128L20.1041 6.18896C19.4239 5.50744 18.3198 5.50744 17.6395 6.18896L18.5235 7.07128Z" fill="var(--stroke-0, #7159B6)" fill-opacity="0.15" mask="url(#path-2-inside-1_119_4811)"/>
</g>
</g>
</g>
</svg>
