<svg preserveAspectRatio="none" width="100%" height="100%" overflow="visible" style="display: block;" viewBox="0 0 23 22.7498" fill="none" xmlns="http://www.w3.org/2000/svg">
<g id="home-1--home-house-roof-shelter">
<path id="Union" fill-rule="evenodd" clip-rule="evenodd" d="M13.3137 0.384836C12.1594 -0.128279 10.8406 -0.128279 9.68645 0.384836C5.95055 2.04564 3.12572 4.22237 1.66308 5.4819C0.720845 6.29325 0.214045 7.44575 0.15166 8.63705C0.083135 9.9456 0 11.9946 0 14.2384C0 15.9646 0.049205 17.6289 0.102995 18.9332C0.18649 20.9579 1.79952 22.5617 3.82401 22.6309C5.56515 22.6904 8.1438 22.7498 11.5 22.7498C14.8562 22.7498 17.4349 22.6904 19.176 22.6309C21.2006 22.5617 22.8136 20.9578 22.8971 18.9331C22.9508 17.6288 23 15.9646 23 14.2384C23 11.9947 22.9169 9.94565 22.8484 8.6371C22.7861 7.4458 22.2792 6.29325 21.337 5.48185C19.8743 4.22233 17.0495 2.04563 13.3137 0.384836ZM10.4989 2.21239C11.1359 1.92921 11.8642 1.92921 12.5012 2.21239C16 3.7678 18.6595 5.8155 20.0319 6.9974C20.5225 7.4198 20.8146 8.0431 20.8512 8.74165C20.9185 10.0285 21 12.0406 21 14.2384C21 15.929 20.9518 17.5643 20.8988 18.8507C20.8583 19.8317 20.0851 20.5986 19.1077 20.632C17.3885 20.6908 14.8326 20.7498 11.5 20.7498C8.16735 20.7498 5.61155 20.6908 3.89232 20.632C2.91493 20.5986 2.14175 19.8318 2.1013 18.8508C2.04825 17.5643 2 15.929 2 14.2384C2 12.0405 2.08154 10.0285 2.14893 8.74165C2.18551 8.0431 2.47758 7.41985 2.96813 6.9974C4.3406 5.81555 7 3.76781 10.4989 2.21239ZM7.5 16.4944C6.80965 16.4944 6.25 17.054 6.25 17.7444C6.25 18.4347 6.80965 18.9944 7.5 18.9944H15.5C16.1903 18.9944 16.75 18.4347 16.75 17.7444C16.75 17.054 16.1903 16.4944 15.5 16.4944H7.5Z" fill="var(--fill-0, white)"/>
</g>
</svg>
