<svg preserveAspectRatio="none" width="100%" height="100%" overflow="visible" style="display: block;" viewBox="0 0 24 24" fill="none" xmlns="http://www.w3.org/2000/svg">
<path id="Vector" d="M13.5256 13.4068C13.5256 14.3127 12.6171 14.8789 11.8904 14.426C11.1637 13.973 11.1637 12.8407 11.8904 12.3877C12.0561 12.2844 12.2441 12.23 12.4355 12.2301C13.0375 12.2301 13.5256 12.757 13.5256 13.4068ZM18.5401 12.2301C17.7009 12.23 17.1765 13.2107 17.596 13.9952C18.0156 14.7797 19.0645 14.7798 19.4842 13.9953C19.5799 13.8164 19.6302 13.6134 19.6302 13.4068C19.6302 12.757 19.1422 12.2301 18.5401 12.2301ZM23.9275 21.8797C24.2636 23.0949 23.255 24.2472 22.112 23.9538C22.084 23.9466 22.0561 23.9385 22.0285 23.9296L19.2531 23.0482C14.8338 25.4035 9.49119 23.2225 7.62151 18.2999C6.6192 18.1889 5.64361 17.8839 4.74141 17.3997L1.97034 18.2811C0.844595 18.6439 -0.222824 17.5551 0.0489734 16.3213C0.0556464 16.291 0.0631034 16.2609 0.0713539 16.2311L0.887855 13.235C-2.00383 6.89603 2.54569 -0.44504 9.07697 0.0211155C12.3141 0.252155 15.1473 2.45151 16.3806 5.6907C22.2686 6.36064 25.7358 13.1594 23.111 18.8883L23.9275 21.8797ZM7.18764 16.8042C6.05591 11.3138 9.72798 6.02769 14.9275 5.66245C12.3705 0.358484 5.45355 0.0315486 2.47694 5.07397C1.09548 7.41416 0.975513 10.3722 2.1622 12.8338C2.24294 12.9975 2.26133 13.1887 2.21343 13.3668L1.32281 16.6336C1.27489 16.8072 1.41908 16.9717 1.58233 16.9297C1.58596 16.9288 1.58958 16.9277 1.59315 16.9266L4.62041 15.9652C4.78542 15.9136 4.96255 15.9334 5.11423 16.0205C5.76356 16.3961 6.46306 16.6605 7.18764 16.8042ZM21.8334 18.4823C24.445 13.2099 20.7901 6.86268 15.2545 7.05732C9.71886 7.25197 6.4543 13.8425 9.37826 18.9203C11.3801 22.3966 15.5375 23.5991 18.8813 21.669C19.033 21.582 19.2101 21.5621 19.3751 21.6137L22.4024 22.5751C22.5635 22.6259 22.7151 22.4693 22.6752 22.2933C22.6745 22.29 22.6736 22.2866 22.6727 22.2833L21.7821 19.0154C21.7342 18.8373 21.7526 18.646 21.8334 18.4823Z" fill="var(--fill-0, #120048)"/>
</svg>
