<svg preserveAspectRatio="none" width="100%" height="100%" overflow="visible" style="display: block;" viewBox="0 0 16 16" fill="none" xmlns="http://www.w3.org/2000/svg">
<g id="Magnifying Glass Streamline Phosphor Regular" clip-path="url(#clip0_119_4801)">
<path id="Vector" d="M15.8199 14.9499L11.9749 11.1044C15.3085 7.10094 13.0595 0.988869 7.9266 0.1027C2.79376 -0.783462 -1.37328 4.22089 0.425947 9.11054C2.04104 13.4998 7.51365 14.9666 11.1063 11.9732L14.9506 15.8195C15.2852 16.1542 15.8566 16.0011 15.979 15.5439C16.0359 15.3317 15.9752 15.1053 15.8199 14.9499ZM1.25514 6.78108C1.25514 2.52338 5.86279 -0.137692 9.54892 1.99117C13.235 4.12002 13.235 9.44214 9.54892 11.571C8.70845 12.0564 7.75482 12.312 6.78433 12.312C3.73205 12.3086 1.25852 9.83432 1.25514 6.78108Z" fill="var(--fill-0, #2F04B0)"/>
</g>
<defs>
<clipPath id="clip0_119_4801">
<rect width="16" height="16" fill="white"/>
</clipPath>
</defs>
</svg>
