<svg preserveAspectRatio="none" width="100%" height="100%" overflow="visible" style="display: block;" viewBox="0 0 16 14" fill="none" xmlns="http://www.w3.org/2000/svg">
<path id="Vector" d="M2.28574 5.6H13.6795C14.4087 5.60363 14.954 4.94342 14.8 4.2434C14.2704 1.785 11.4038 0 7.98264 0C4.56151 0 1.69489 1.785 1.16532 4.2434C1.01127 4.94342 1.55654 5.60363 2.28574 5.6ZM7.98264 1.12C10.8208 1.12 13.2719 2.5627 13.6795 4.48H2.28574L2.28076 4.4751C2.69343 2.5627 5.14453 1.12 7.98264 1.12ZM15.1998 8.9936L12.2683 10.0436L9.62193 8.9999C9.48604 8.94654 9.33446 8.94654 9.19857 8.9999L6.56145 10.0366L3.92005 8.9999C3.79001 8.94888 3.6454 8.94663 3.51378 8.9936L0.377749 10.1136C-0.0239856 10.2873 -0.0836465 10.8229 0.270359 11.0778C0.413488 11.1808 0.597298 11.2126 0.767614 11.1636L1.71056 10.8283V11.2C1.71056 12.7464 2.98698 14 4.56151 14H11.4038C12.9783 14 14.2547 12.7464 14.2547 11.2V10.5231L15.5897 10.0464C16.0109 9.92532 16.1408 9.40176 15.8234 9.104C15.6567 8.94769 15.4107 8.90523 15.1998 8.9964V8.9936ZM13.1143 11.2C13.1143 12.1278 12.3485 12.88 11.4038 12.88H4.56151C3.61676 12.88 2.85095 12.1279 2.85095 11.2V10.4216L3.69696 10.1192L6.34335 11.1601C6.47924 11.2135 6.63082 11.2135 6.76671 11.1601L9.40383 10.1234L12.041 11.1601C12.171 11.2111 12.3156 11.2134 12.4472 11.1664L13.1079 10.9305L13.1143 11.2ZM0 7.28C0 6.97072 0.255283 6.72 0.570188 6.72H15.3951C15.834 6.72002 16.1084 7.1867 15.8889 7.56002C15.787 7.73327 15.5988 7.84 15.3951 7.84H0.570188C0.25527 7.84001 0 7.58929 0 7.28Z" fill="var(--fill-0, #F5F7FA)"/>
</svg>
