<svg preserveAspectRatio="none" width="100%" height="100%" overflow="visible" style="display: block;" viewBox="0 0 14 14" fill="none" xmlns="http://www.w3.org/2000/svg">
<path id="Vector" d="M4.48 5.92307V11.3077C4.48 11.7222 4.01333 11.9813 3.64 11.774C3.46673 11.6778 3.36 11.5001 3.36 11.3077V5.92307C3.36 5.50857 3.82667 5.2495 4.2 5.45676C4.37326 5.55294 4.48 5.7307 4.48 5.92307ZM7.28 5.38462C6.97072 5.38462 6.72 5.62569 6.72 5.92307V11.3077C6.72 11.7222 7.18667 11.9813 7.56 11.774C7.73326 11.6778 7.84 11.5001 7.84 11.3077V5.92307C7.84 5.62569 7.58928 5.38462 7.28 5.38462ZM14 6.46154V10.7692C14 11.6614 13.2478 12.3846 12.32 12.3846H11.2V12.9231C11.2 13.5178 10.6985 14 10.08 14H1.12C0.501423 14 0 13.5179 0 12.9231V3.76923C0 1.69077 2.0097 0 4.48 0C5.6539 0 6.7837 0.390385 7.6174 1.07693H8.4C9.9464 1.07693 11.2 2.28231 11.2 3.76923V4.84616H12.32C13.2478 4.84619 14 5.56941 14 6.46154ZM1.19 3.23077H9.9834C9.74614 2.58552 9.11176 2.15406 8.4 2.15384H7.4018C7.25757 2.15383 7.1189 2.1003 7.0147 2.00443C6.3742 1.41346 5.4509 1.07693 4.48 1.07693C2.8574 1.07693 1.5001 2.00307 1.19 3.23077ZM10.08 12.9231V4.30769H1.12V12.9231H10.08ZM12.88 6.46154C12.88 6.16415 12.6293 5.92307 12.32 5.92307H11.2V11.3077H12.32C12.6293 11.3077 12.88 11.0666 12.88 10.7692V6.46154Z" fill="var(--fill-0, #F5F7FA)"/>
</svg>
