<svg preserveAspectRatio="none" width="100%" height="100%" overflow="visible" style="display: block;" viewBox="0 0 14 14" fill="none" xmlns="http://www.w3.org/2000/svg">
<path id="Vector" d="M3.50056 2.69296V0.539234C3.50056 0.124751 3.91721 -0.134303 4.25052 0.072939C4.40521 0.169123 4.50051 0.346872 4.50051 0.539234V2.69296C4.50051 3.10744 4.08386 3.36649 3.75055 3.15925C3.59586 3.06307 3.50056 2.88532 3.50056 2.69296ZM6.00043 3.23139C6.27656 3.23139 6.5004 2.99033 6.5004 2.69296V0.539234C6.5004 0.124751 6.08375 -0.134303 5.75044 0.072939C5.59575 0.169123 5.50045 0.346872 5.50045 0.539234V2.69296C5.50045 2.99033 5.7243 3.23139 6.00043 3.23139ZM8.00032 3.23139C8.27645 3.23139 8.50029 2.99033 8.50029 2.69296V0.539234C8.50029 0.124751 8.08365 -0.134303 7.75033 0.072939C7.59564 0.169123 7.50035 0.346872 7.50035 0.539234V2.69296C7.50035 2.99033 7.72419 3.23139 8.00032 3.23139ZM14 7.0004V7.53883C13.9996 8.96027 12.9731 10.1364 11.6558 10.2249C11.3147 11.2638 10.7341 12.1923 9.96834 12.9231H11.5001C11.885 12.9231 12.1256 13.3718 11.9331 13.7308C11.8438 13.8974 11.6788 14 11.5001 14H0.50072C0.115841 14 -0.12471 13.5513 0.0677293 13.1924C0.157044 13.0258 0.322096 12.9231 0.50072 12.9231H2.03439C0.744066 11.6955 0.00377066 9.93146 0.000746272 8.07726V4.84668C0.000746272 4.5493 0.224585 4.30824 0.50072 4.30825H11.5001C12.8807 4.30831 14 5.51361 14 7.0004ZM11.0002 5.38511H1.00069V8.07726C1.00463 10.1398 2.0987 12.02 3.82054 12.9231H8.18031C9.90215 12.02 10.9962 10.1398 11.0002 8.07726V5.38511ZM13.0001 7.0004C12.9999 6.31605 12.5992 5.70611 12.0001 5.47799V8.07726C11.9997 8.41538 11.9747 8.75294 11.9251 9.08682C12.5622 8.88412 12.9996 8.25425 13.0001 7.53883V7.0004Z" fill="var(--fill-0, #F5F7FA)"/>
</svg>
