<svg preserveAspectRatio="none" width="100%" height="100%" overflow="visible" style="display: block;" viewBox="0 0 15.0769 15.68" fill="none" xmlns="http://www.w3.org/2000/svg">
<path id="Vector" d="M4.82462 6.63384V12.6646C4.82462 13.1289 4.32205 13.419 3.92 13.1869C3.73341 13.0792 3.61846 12.8801 3.61846 12.6646V6.63384C3.61846 6.1696 4.12103 5.87944 4.52308 6.11157C4.70967 6.21929 4.82462 6.41839 4.82462 6.63384ZM7.84 6.03077C7.50693 6.03077 7.23693 6.30078 7.23693 6.63384V12.6646C7.23693 13.1289 7.73949 13.419 8.14154 13.1869C8.32813 13.0792 8.44308 12.8801 8.44308 12.6646V6.63384C8.44308 6.30078 8.17307 6.03077 7.84 6.03077ZM15.0769 7.23693V12.0615C15.0769 13.0608 14.2669 13.8708 13.2677 13.8708H12.0615V14.4738C12.0615 15.14 11.5215 15.68 10.8554 15.68H1.20616C0.539994 15.68 0 15.14 0 14.4738V4.22154C0 1.89366 2.16429 0 4.82462 0C6.08882 0 7.30553 0.437231 8.20336 1.20616H9.04616C10.7115 1.20616 12.0615 2.55619 12.0615 4.22154V5.42769H13.2677C14.2669 5.42774 15.0769 6.23774 15.0769 7.23693ZM1.28154 3.61846H10.7514C10.4958 2.89578 9.81267 2.41254 9.04616 2.41231H7.97117C7.81584 2.41229 7.66651 2.35234 7.55429 2.24496C6.86452 1.58307 5.8702 1.20616 4.82462 1.20616C3.0772 1.20616 1.61549 2.24344 1.28154 3.61846ZM10.8554 14.4738V4.82461H1.20616V14.4738H10.8554ZM13.8708 7.23693C13.8708 6.90385 13.6008 6.63384 13.2677 6.63384H12.0615V12.6646H13.2677C13.6007 12.6646 13.8708 12.3946 13.8708 12.0615V7.23693Z" fill="var(--fill-0, #F5F7FA)"/>
</svg>
