<svg preserveAspectRatio="none" width="100%" height="100%" overflow="visible" style="display: block;" viewBox="0 0 15.6803 13.9699" fill="none" xmlns="http://www.w3.org/2000/svg">
<path id="Vector" d="M2.24007 5.58794H13.4062C14.1208 5.59157 14.6552 4.93277 14.5042 4.23426C13.9852 1.78116 11.1759 0 7.82313 0C4.47036 0 1.66102 1.78116 1.14204 4.23426C0.991063 4.93277 1.52544 5.59157 2.24007 5.58794ZM7.82313 1.11759C10.6045 1.11759 13.0066 2.55718 13.4062 4.47036H2.24007L2.23518 4.46547C2.63961 2.55718 5.04173 1.11759 7.82313 1.11759ZM14.8961 8.97424L12.0232 10.022L9.42966 8.98053C9.29648 8.92728 9.14793 8.92728 9.01476 8.98053L6.43033 10.015L3.84171 8.98053C3.71427 8.92961 3.57256 8.92737 3.44357 8.97424L0.3702 10.0918C-0.0235063 10.2651 -0.081975 10.7996 0.264956 11.0539C0.405225 11.1568 0.585362 11.1884 0.752275 11.1396L1.67638 10.805V11.1759C1.67638 12.719 2.92729 13.9699 4.47036 13.9699H11.1759C12.719 13.9699 13.9699 12.719 13.9699 11.1759V10.5005L15.2781 10.0248C15.691 9.90395 15.8182 9.38152 15.5072 9.0844C15.3439 8.92843 15.1027 8.88606 14.8961 8.97703V8.97424ZM12.8523 11.1759C12.8523 12.1017 12.1017 12.8522 11.1759 12.8523H4.47036C3.54449 12.8523 2.79397 12.1018 2.79397 11.1759V10.3992L3.62309 10.0974L6.21659 11.1361C6.34977 11.1893 6.49832 11.1893 6.63149 11.1361L9.21592 10.1016L11.8003 11.1361C11.9278 11.187 12.0695 11.1892 12.1985 11.1424L12.846 10.907L12.8523 11.1759ZM0 7.26433C0 6.95571 0.250181 6.70553 0.558794 6.70553H15.0875C15.5176 6.70556 15.7865 7.17122 15.5714 7.54375C15.4716 7.71662 15.2871 7.82312 15.0875 7.82312H0.558794C0.250169 7.82314 0 7.57295 0 7.26433Z" fill="var(--fill-0, #F5F7FA)"/>
</svg>
