<svg preserveAspectRatio="none" width="100%" height="100%" overflow="visible" style="display: block;" viewBox="0 0 14 14" fill="none" xmlns="http://www.w3.org/2000/svg">
<path id="Vector" d="M13.7476 3.74166C13.5558 3.50062 13.2809 3.36307 12.9926 3.3638H9.9974C9.9974 0.778202 7.49726 -0.837797 5.49714 0.455006C4.56888 1.05499 3.99705 2.16382 3.99705 3.3638H1.00188C0.715253 3.36466 0.442502 3.50208 0.251832 3.74166C0.0627475 3.98038 -0.0263875 4.29807 0.00681562 4.61495L0.898121 13.0119C0.957976 13.5784 1.38867 14.0039 1.89818 14H12.1019C12.6114 14.0039 13.0421 13.5784 13.102 13.0119L13.9933 4.61495C14.0263 4.29797 13.9369 3.98026 13.7476 3.74166ZM6.99722 1.12461C8.10186 1.12461 8.99734 2.12713 8.99734 3.3638H4.99711C4.99711 2.12713 5.89259 1.12461 6.99722 1.12461ZM12.1075 12.8804C12.1057 12.8811 12.1037 12.8811 12.1019 12.8804H1.88755L1.00188 4.4834H3.99705V6.16279C3.99705 6.59373 4.41374 6.86306 4.74709 6.64759C4.9018 6.5476 4.99711 6.36279 4.99711 6.16279V4.4834H8.99734V6.16279C8.99734 6.59373 9.41403 6.86306 9.74738 6.64759C9.90209 6.5476 9.9974 6.36279 9.9974 6.16279V4.4834H12.9976L12.1075 12.8804Z" fill="var(--fill-0, #F5F7FA)"/>
</svg>
