<svg preserveAspectRatio="none" width="100%" height="100%" overflow="visible" style="display: block;" viewBox="0 0 12 12" fill="none" xmlns="http://www.w3.org/2000/svg">
<path id="Vector" d="M3.00048 2.30825V0.462201C3.00048 0.106929 3.35761 -0.115117 3.6433 0.0625191C3.77589 0.144963 3.85758 0.297318 3.85758 0.462201V2.30825C3.85758 2.66352 3.50045 2.88557 3.21475 2.70793C3.08216 2.62549 3.00048 2.47313 3.00048 2.30825ZM5.14322 2.76976C5.37991 2.76976 5.57177 2.56314 5.57177 2.30825V0.462201C5.57177 0.106929 5.21465 -0.115117 4.92895 0.0625191C4.79636 0.144963 4.71467 0.297318 4.71467 0.462201V2.30825C4.71467 2.56314 4.90654 2.76976 5.14322 2.76976ZM6.85742 2.76976C7.0941 2.76976 7.28597 2.56314 7.28597 2.30825V0.462201C7.28597 0.106929 6.92884 -0.115117 6.64314 0.0625191C6.51055 0.144963 6.42887 0.297318 6.42887 0.462201V2.30825C6.42887 2.56314 6.62073 2.76976 6.85742 2.76976ZM12 6.00034V6.46186C11.9997 7.68023 11.1198 8.68838 9.99064 8.76422C9.69832 9.65469 9.20062 10.4505 8.54429 11.077H9.85726C10.1872 11.077 10.3933 11.4616 10.2284 11.7692C10.1518 11.912 10.0104 12 9.85726 12H0.429188C0.099292 12 -0.106894 11.6154 0.0580537 11.3077C0.134609 11.1649 0.276083 11.077 0.429188 11.077H1.74376C0.637771 10.0247 0.003232 8.51268 0.000639662 6.92337V4.1543C0.000639662 3.8994 0.192501 3.69277 0.429188 3.69278H9.85726C11.0406 3.69284 12 4.72595 12 6.00034ZM9.42871 4.61581H0.857737V6.92337C0.861109 8.69126 1.79889 10.3028 3.27475 11.077H7.01169C8.48756 10.3028 9.42534 8.69126 9.42871 6.92337V4.61581ZM11.1429 6.00034C11.1427 5.41376 10.7993 4.89095 10.2858 4.69542V6.92337C10.2855 7.21318 10.264 7.50252 10.2215 7.7887C10.7676 7.61496 11.1425 7.07507 11.1429 6.46186V6.00034Z" fill="var(--fill-0, white)"/>
</svg>
