<svg preserveAspectRatio="none" width="100%" height="100%" overflow="visible" style="display: block;" viewBox="0 0 15.6808 14.5608" fill="none" xmlns="http://www.w3.org/2000/svg">
<path id="Vector" d="M3.92084 2.80084V0.560836C3.92084 0.129748 4.3875 -0.139683 4.76084 0.0758609C4.9341 0.175898 5.04084 0.360767 5.04084 0.560836V2.80084C5.04084 3.23192 4.57417 3.50135 4.20084 3.28581C4.02757 3.18577 3.92084 3.0009 3.92084 2.80084ZM6.72084 3.36084C7.03012 3.36084 7.28084 3.11012 7.28084 2.80084V0.560836C7.28084 0.129748 6.81417 -0.139683 6.44084 0.0758609C6.26757 0.175898 6.16084 0.360767 6.16084 0.560836V2.80084C6.16084 3.11012 6.41155 3.36084 6.72084 3.36084ZM8.96084 3.36084C9.27012 3.36084 9.52084 3.11012 9.52084 2.80084V0.560836C9.52084 0.129748 9.05417 -0.139683 8.68084 0.0758609C8.50757 0.175898 8.40084 0.360767 8.40084 0.560836V2.80084C8.40084 3.11012 8.65155 3.36084 8.96084 3.36084ZM15.6808 7.28084V7.84084C15.6804 9.31922 14.5306 10.5425 13.0551 10.6345C12.6731 11.715 12.0228 12.6807 11.1651 13.4408H12.8808C13.3119 13.4408 13.5814 13.9075 13.3658 14.2808C13.2658 14.4541 13.0809 14.5608 12.8808 14.5608H0.560836C0.129748 14.5608 -0.139683 14.0942 0.0758609 13.7208C0.175898 13.5476 0.360767 13.4408 0.560836 13.4408H2.27864C0.833398 12.164 0.00422337 10.3293 0.000835869 8.40084V5.04084C0.000835869 4.73155 0.251548 4.48082 0.560836 4.48084H12.8808C14.4272 4.4809 15.6808 5.73449 15.6808 7.28084ZM12.3208 5.60084H1.12084V8.40084C1.12524 10.546 2.35067 12.5015 4.27924 13.4408H9.16244C11.091 12.5015 12.3164 10.546 12.3208 8.40084V5.60084ZM14.5608 7.28084C14.5606 6.56907 14.1119 5.93469 13.4408 5.69744V8.40084C13.4404 8.7525 13.4123 9.10358 13.3568 9.45084C14.0704 9.24001 14.5603 8.58491 14.5608 7.84084V7.28084Z" fill="var(--fill-0, #F5F7FA)"/>
</svg>
