<svg preserveAspectRatio="none" width="100%" height="100%" overflow="visible" style="display: block;" viewBox="0 0 12 12" fill="none" xmlns="http://www.w3.org/2000/svg">
<path id="Vector" d="M11.7837 3.20714C11.6192 3.00053 11.3837 2.88263 11.1365 2.88326H8.5692C8.5692 0.66703 6.42622 -0.718112 4.71183 0.390005C3.91618 0.904279 3.42604 1.85471 3.42604 2.88326H0.858752C0.613074 2.884 0.379287 3.00178 0.215856 3.20714C0.0537836 3.41176 -0.0226179 3.68406 0.00584196 3.95567L0.769818 11.1531C0.821123 11.6386 1.19029 12.0034 1.62701 12H10.3731C10.8098 12.0034 11.1789 11.6386 11.2302 11.1531L11.9942 3.95567C12.0225 3.68397 11.9459 3.41165 11.7837 3.20714ZM5.99762 0.963949C6.94445 0.963949 7.712 1.82326 7.712 2.88326H4.28324C4.28324 1.82326 5.05079 0.963949 5.99762 0.963949ZM10.3779 11.0403C10.3763 11.041 10.3746 11.041 10.3731 11.0403H1.6179L0.858752 3.84291H3.42604V5.28239C3.42604 5.65177 3.78321 5.88262 4.06894 5.69794C4.20155 5.61222 4.28324 5.45382 4.28324 5.28239V3.84291H7.712V5.28239C7.712 5.65177 8.06917 5.88262 8.3549 5.69794C8.48751 5.61222 8.5692 5.45382 8.5692 5.28239V3.84291H11.1408L10.3779 11.0403Z" fill="var(--fill-0, white)"/>
</svg>
