<svg preserveAspectRatio="none" width="100%" height="100%" overflow="visible" style="display: block;" viewBox="0 0 15.68 14.0059" fill="none" xmlns="http://www.w3.org/2000/svg">
<path id="Vector" d="M15.3973 3.74323C15.1825 3.50208 14.8747 3.36448 14.5517 3.36521H11.1971C11.1971 0.778527 8.39693 -0.838148 6.1568 0.455196C5.11715 1.05543 4.4767 2.16473 4.4767 3.36521H1.1221C0.801084 3.36607 0.495602 3.50354 0.282052 3.74323C0.0702772 3.98205 -0.029554 4.29987 0.0076335 4.61688L1.0059 13.0174C1.07293 13.5841 1.55531 14.0098 2.12596 14.0058H13.5541C14.1248 14.0098 14.6072 13.5841 14.6742 13.0174L15.6724 4.61688C15.7095 4.29976 15.6094 3.98193 15.3973 3.74323ZM7.83689 1.12508C9.07408 1.12508 10.077 2.12802 10.077 3.36521H5.59676C5.59676 2.12802 6.5997 1.12508 7.83689 1.12508ZM13.5604 12.8858C13.5584 12.8865 13.5562 12.8865 13.5541 12.8858H2.11406L1.1221 4.48527H4.4767V6.16537C4.4767 6.59648 4.94339 6.86593 5.31675 6.65037C5.49002 6.55033 5.59676 6.36545 5.59676 6.16537V4.48527H10.077V6.16537C10.077 6.59648 10.5437 6.86593 10.9171 6.65037C11.0903 6.55033 11.1971 6.36545 11.1971 6.16537V4.48527H14.5573L13.5604 12.8858Z" fill="var(--fill-0, #F5F7FA)"/>
</svg>
