<svg preserveAspectRatio="none" width="100%" height="100%" overflow="visible" style="display: block;" viewBox="0 0 12 12" fill="none" xmlns="http://www.w3.org/2000/svg">
<path id="Vector" d="M3.84 5.07692V9.69231C3.84 10.0476 3.44 10.2697 3.12 10.092C2.97149 10.0096 2.88 9.8572 2.88 9.69231V5.07692C2.88 4.72163 3.28 4.49957 3.6 4.67722C3.74851 4.75966 3.84 4.91203 3.84 5.07692ZM6.24 4.61538C5.9749 4.61538 5.76 4.82202 5.76 5.07692V9.69231C5.76 10.0476 6.16 10.2697 6.48 10.092C6.62851 10.0096 6.72 9.8572 6.72 9.69231V5.07692C6.72 4.82202 6.50509 4.61538 6.24 4.61538ZM12 5.53846V9.23077C12 9.99547 11.3553 10.6154 10.56 10.6154H9.6V11.0769C9.6 11.5867 9.17018 12 8.64 12H0.960002C0.429791 12 0 11.5867 0 11.0769V3.23077C0 1.44923 1.7226 0 3.84 0C4.8462 0 5.8146 0.334616 6.5292 0.923079H7.2C8.52548 0.923079 9.6 1.95627 9.6 3.23077V4.15385H10.56C11.3553 4.15388 12 4.77378 12 5.53846ZM1.02 2.76923H8.5572C8.35384 2.21616 7.81008 1.84633 7.2 1.84615H6.3444C6.22077 1.84614 6.10192 1.80026 6.0126 1.71808C5.4636 1.21154 4.6722 0.923079 3.84 0.923079C2.4492 0.923079 1.2858 1.71692 1.02 2.76923ZM8.64 11.0769V3.69231H0.960002V11.0769H8.64ZM11.04 5.53846C11.04 5.28356 10.8251 5.07692 10.56 5.07692H9.6V9.69231H10.56C10.8251 9.6923 11.04 9.48566 11.04 9.23077V5.53846Z" fill="var(--fill-0, white)"/>
</svg>
