<svg preserveAspectRatio="none" width="100%" height="100%" overflow="visible" style="display: block;" viewBox="0 0 12 12" fill="none" xmlns="http://www.w3.org/2000/svg">
<path id="Vector" d="M1.71431 4.8H10.2597C10.8066 4.80311 11.2155 4.23721 11.1 3.6372C10.7028 1.53 8.55283 0 5.98698 0C3.42113 0 1.27117 1.53 0.873993 3.6372C0.758453 4.23721 1.16741 4.80311 1.71431 4.8ZM5.98698 0.959999C8.11557 0.959999 9.95389 2.1966 10.2597 3.84H1.71431L1.71057 3.8358C2.02007 2.1966 3.8584 0.959999 5.98698 0.959999ZM11.3999 7.7088L9.20124 8.6088L7.21645 7.7142C7.11453 7.66846 7.00085 7.66846 6.89893 7.7142L4.92109 8.6028L2.94003 7.7142C2.84251 7.67047 2.73405 7.66854 2.63534 7.7088L0.283311 8.6688C-0.0179892 8.81766 -0.0627349 9.2768 0.202769 9.49525C0.310116 9.58357 0.447974 9.61076 0.575711 9.5688L1.28292 9.2814V9.6C1.28292 10.9255 2.24023 12 3.42113 12H8.55283C9.73373 12 10.691 10.9255 10.691 9.6V9.0198L11.6923 8.6112C12.0082 8.50741 12.1056 8.05865 11.8675 7.80343C11.7425 7.66945 11.558 7.63306 11.3999 7.7112V7.7088ZM9.83575 9.6C9.83575 10.3953 9.26135 11.04 8.55283 11.04H3.42113C2.71257 11.04 2.13821 10.3953 2.13821 9.6V8.9328L2.77272 8.6736L4.75751 9.5658C4.85943 9.61154 4.97312 9.61154 5.07503 9.5658L7.05288 8.6772L9.03072 9.5658C9.12825 9.60953 9.23671 9.61146 9.33541 9.5712L9.83094 9.369L9.83575 9.6ZM0 6.24C0 5.9749 0.191462 5.76 0.427641 5.76H11.5463C11.8755 5.76002 12.0813 6.16003 11.9167 6.48002C11.8403 6.62852 11.6991 6.72 11.5463 6.72H0.427641C0.191452 6.72001 0 6.5051 0 6.24Z" fill="var(--fill-0, white)"/>
</svg>
